<svg width="60" height="60" viewBox="0 0 60 60" fill="none" xmlns="http://www.w3.org/2000/svg">
<path d="M20 17.5C20 16.837 20.2634 16.2011 20.7323 15.7322C21.2011 15.2634 21.837 15 22.5 15H42.5C43.1631 15 43.799 15.2634 44.2678 15.7322C44.7366 16.2011 45 16.837 45 17.5V37.5C45 38.163 44.7366 38.7989 44.2678 39.2678C43.799 39.7366 43.1631 40 42.5 40C41.837 40 41.2011 39.7366 40.7323 39.2678C40.2634 38.7989 40 38.163 40 37.5V23.535L19.2675 44.2675C18.796 44.7229 18.1645 44.9749 17.509 44.9692C16.8535 44.9635 16.2265 44.7006 15.763 44.237C15.2995 43.7735 15.0366 43.1465 15.0309 42.491C15.0252 41.8355 15.2771 41.204 15.7325 40.7325L36.465 20H22.5C21.837 20 21.2011 19.7366 20.7323 19.2678C20.2634 18.7989 20 18.163 20 17.5Z" fill="#DDE5E9"/>
</svg>
