<svg width="460" height="153" viewBox="0 0 460 153" fill="none" xmlns="http://www.w3.org/2000/svg">
<path d="M0 10C0 4.47715 4.47715 0 10 0H70C75.5229 0 80 4.47715 80 10V12.5C80 18.0228 84.4771 22.5 90 22.5H93.5C99.0229 22.5 103.5 18.0228 103.5 12.5V10C103.5 4.47715 107.977 0 113.5 0H230H351C356.523 0 361 4.47715 361 10V12.75C361 18.1348 365.365 22.5 370.75 22.5C376.135 22.5 380.5 18.1348 380.5 12.75V10C380.5 4.47715 384.977 0 390.5 0H450C455.523 0 460 4.47715 460 10V93.5C460 99.0229 455.523 103.5 450 103.5H408.116C405.779 103.5 403.517 104.318 401.72 105.812L347.78 150.688C345.983 152.182 343.721 153 341.384 153H230H118.639C116.289 153 114.013 152.172 112.212 150.661L58.788 105.839C56.9871 104.328 54.7115 103.5 52.3607 103.5H10C4.47715 103.5 0 99.0229 0 93.5V10Z" fill="#EA8917"/>
</svg>
