<svg width="160" height="160" viewBox="0 0 160 160" fill="none" xmlns="http://www.w3.org/2000/svg">
<path d="M146.667 66.6667V92.0667C142.6 89.7333 138.133 88.1333 133.333 87.2667V80H26.6667V133.333H87.2667C88.0667 138.133 89.7333 142.6 92.0667 146.667H26.6667C23.1305 146.667 19.7391 145.262 17.2386 142.761C14.7381 140.261 13.3333 136.87 13.3333 133.333V66.6667H146.667ZM111.4 47.1333L93.1333 23.6L80 26.2L98.3333 49.7333L111.4 47.1333ZM144.133 40.6667L138.933 14.5333L112.733 19.7333L131 43.3333L144.133 40.6667ZM78.7333 53.6667L60.4667 30L47.3333 32.7333L65.6667 56.2667L78.7333 53.6667ZM27.7333 36.6667L21.2 37.9333C19.4827 38.272 17.849 38.9463 16.3928 39.9176C14.9366 40.889 13.6865 42.1382 12.7141 43.5937C11.7417 45.0492 11.0662 46.6823 10.7263 48.3994C10.3864 50.1165 10.3888 51.8838 10.7333 53.6L13.3333 66.6667L46 60.2L27.7333 36.6667ZM113.333 146.667L146.667 126.667L113.333 106.667V146.667Z" fill="#DDDADA"/>
</svg>
