<svg width="160" height="160" viewBox="0 0 160 160" fill="none" xmlns="http://www.w3.org/2000/svg">
<path d="M21.9733 137.347L64.4 94.9199M117.827 76.0533L105.127 114.16C104.923 114.769 104.576 115.321 104.114 115.768C103.652 116.214 103.089 116.543 102.473 116.727L24.62 139.873C23.9186 140.082 23.1735 140.094 22.4658 139.908C21.7581 139.722 21.1149 139.346 20.6062 138.82C20.0975 138.294 19.7428 137.639 19.5806 136.925C19.4185 136.212 19.4552 135.467 19.6867 134.773L44.9667 58.9466C45.1479 58.4022 45.444 57.9031 45.8351 57.4832C46.2262 57.0634 46.7031 56.7326 47.2333 56.5133L83.1467 41.7266C83.8768 41.4251 84.6799 41.3465 85.4546 41.5007C86.2293 41.6549 86.941 42.0351 87.5 42.5933L116.86 71.9599C117.385 72.4852 117.754 73.1463 117.925 73.8693C118.096 74.5923 118.062 75.3485 117.827 76.0533Z" stroke="#DDDADA" stroke-width="10" stroke-linecap="round" stroke-linejoin="round"/>
<path d="M122.687 21.2133L138.447 36.9733C139.631 38.1064 140.577 39.4646 141.229 40.9683C141.882 42.4719 142.227 44.0907 142.245 45.7297C142.263 47.3686 141.954 48.9947 141.335 50.5124C140.716 52.0301 139.8 53.4089 138.641 54.5679C137.482 55.7268 136.103 56.6426 134.586 57.2615C133.068 57.8803 131.442 58.1898 129.803 58.1717C128.164 58.1535 126.545 57.8082 125.042 57.156C123.538 56.5037 122.18 55.5576 121.047 54.3733L105.28 38.6133C103.056 36.289 101.831 33.1863 101.866 29.9697C101.902 26.7531 103.196 23.6782 105.47 21.4036C107.745 19.129 110.82 17.8354 114.036 17.7998C117.253 17.7643 120.362 18.9896 122.687 21.2133Z" fill="#DDDADA" stroke="#DDDADA" stroke-width="10" stroke-linecap="round" stroke-linejoin="round"/>
<path d="M78.54 80.7733C77.6176 79.8182 76.5141 79.0564 75.2941 78.5323C74.0741 78.0082 72.7619 77.7324 71.4341 77.7208C70.1063 77.7093 68.7895 77.9623 67.5605 78.4651C66.3315 78.9679 65.215 79.7105 64.2761 80.6494C63.3372 81.5883 62.5946 82.7048 62.0918 83.9338C61.589 85.1628 61.336 86.4796 61.3475 87.8074C61.3591 89.1351 61.6349 90.4473 62.159 91.6674C62.6831 92.8874 63.4449 93.9909 64.4 94.9133C66.2861 96.7349 68.8121 97.7429 71.4341 97.7201C74.056 97.6973 76.5642 96.6456 78.4182 94.7915C80.2723 92.9374 81.324 90.4293 81.3468 87.8074C81.3696 85.1854 80.3616 82.6594 78.54 80.7733Z" stroke="#DDDADA" stroke-width="10" stroke-linecap="round" stroke-linejoin="round"/>
</svg>
