<svg width="160" height="160" viewBox="0 0 160 160" fill="none" xmlns="http://www.w3.org/2000/svg">
<g clip-path="url(#clip0_30_1589)">
<path d="M65.2572 49.2571C43.3144 34.2857 22.8572 45.7142 5.71436 63.3142L43.6572 86.1714M110.743 94.7428C125.714 116.686 114.286 137.143 96.6858 154.286L73.8286 116.343" stroke="#DDDADA" stroke-width="11.4286" stroke-linecap="round" stroke-linejoin="round"/>
<path d="M60.3429 57.3714L102.629 99.6571M43.6572 86.0571L73.9429 116.343C98.1715 101.829 125.714 87.7714 138.286 74.7428C165.486 47.5428 149.714 10.2857 149.714 10.2857C149.714 10.2857 112.457 -5.48575 85.2572 21.7143C72.2287 34.2857 58.0572 61.9428 43.6572 86.0571Z" stroke="#DDDADA" stroke-width="11.4286" stroke-linecap="round" stroke-linejoin="round"/>
<path d="M120 45.7142C121.516 45.7142 122.969 45.1122 124.041 44.0405C125.112 42.9689 125.714 41.5155 125.714 39.9999C125.714 38.4844 125.112 37.031 124.041 35.9593C122.969 34.8877 121.516 34.2856 120 34.2856C118.485 34.2856 117.031 34.8877 115.959 35.9593C114.888 37.031 114.286 38.4844 114.286 39.9999C114.286 41.5155 114.888 42.9689 115.959 44.0405C117.031 45.1122 118.485 45.7142 120 45.7142ZM42.0572 142.171C35.4286 148.571 5.71436 154.286 5.71436 154.286C5.71436 154.286 11.4286 124.571 17.8286 117.943C20.1954 115.413 23.2728 113.658 26.6558 112.911C30.0388 112.164 33.5688 112.458 36.7812 113.756C39.9937 115.053 42.7379 117.293 44.6527 120.18C46.5675 123.068 47.5632 126.467 47.5086 129.931C47.4668 132.231 46.9627 134.499 46.0261 136.6C45.0896 138.701 43.7398 140.603 42.0572 142.171Z" stroke="#DDDADA" stroke-width="11.4286" stroke-linecap="round" stroke-linejoin="round"/>
</g>
<defs>
<clipPath id="clip0_30_1589">
<rect width="160" height="160" fill="white"/>
</clipPath>
</defs>
</svg>
