<?xml version="1.0" encoding="UTF-8"?>
<svg id="Layer_1" data-name="Layer 1" xmlns="http://www.w3.org/2000/svg" viewBox="0 0 1038.53 812.85">
  <defs>
    <style>
    #Himpunan_Mahasiswa_Teknik_Informatika {
            width: 0;
            animation: moveTop 1s forwards;
        }

        @keyframes moveTop {
            from {
                transform: translateY(-500px);
            }
            to {
                transform: translateY(0);
            }
        }
    #H {
            opacity: 0;
            animation: reveal 1s forwards infinite;
        }
        #I {
            opacity: 0;
            animation: reveal 1s forwards 0.2s infinite;
        }
        #M {
            opacity: 0;
            animation: reveal 1s forwards 0.4s infinite;
        }
        #T {
            opacity: 0;
            animation: reveal 1s forwards 0.6s infinite;
        }
        #I-2 {
            opacity: 0;
            animation: reveal 1s forwards 0.8s infinite;
        }

        @keyframes reveal {
            to { opacity: 1; }
        }
      .cls-1 {
        fill: #3966bf;
      }

      .cls-1, .cls-2, .cls-3 {
        stroke-width: 0px;
      }

      .cls-2 {
        fill: #fda802;
      }

      .cls-3 {
        fill: #1f1b19;
      }

      @keyframes cincinbiru {
      0% {
        stroke-dasharray: 0, 1000;
      }
      30% {
        stroke-dasharray: 1000, 0;
      }
      70% {
        fill: #fff;
      }
      100% {
        fill: #3966bf;
      }
    }

    #Cincin_Biru path {
      stroke: black;
      stroke-width: 2;
      stroke-dasharray: 0 1000;
      fill: none;
      animation: cincinbiru 4s .6s forwards;
    }
      @keyframes cincinkuning {
        0% {
        stroke-dasharray: 0, 1000;
      }
      30% {
        stroke-dasharray: 1000, 0;
      }
      70% {
        fill: #fff;
      }
      100% {
        fill: #fca702;
      }
    }

    #Cincin_Kuning path {
      stroke: black;
      stroke-width: 2;
      stroke-dasharray: 0 1000;
      fill: none;
      animation: cincinkuning 5s forwards;
    }
    #Universitas_Muhammadiyah_Tangerang {
            width: 0;
            animation: moveRight 1s .5s forwards;
            transform: translateX(-1000px);
        }

        @keyframes moveRight {
            from {
                transform: translateX(-1000px);
            }
            to {
                transform: translateX(0);
            }
        }
        @keyframes circle {
      80% {
        opacity: 0;
      }
      100% {
        opacity: 1;
      }
    }
      circle {
        opacity: 0;
        animation: circle 4.5s forwards;
      }
    
      </style>
  </defs>
  <circle class="cls-2" id="circle-blue" cx="491.85" cy="595.83" r="41.5"/>
  <circle class="cls-2" id="circle-yellow" cx="871.38" cy="348.82" r="41.5"/>
  <g id="Cincin_Kuning" data-name="Cintin Kuning">
    <path class="cls-2" d="m722.77,188.36c-1.37-1.43-1.1-2.71.33-3.98,8.17-7.19,16.32-14.39,24.46-21.62,2.45-2.17,4.82-4.43,7.66-7.06,7.93,8.2,15.58,16.1,23.21,24.02,4.55,4.72,9.16,9.41,13.58,14.26,4.11,4.51,7.98,9.25,12.01,13.84,3.84,4.37,7.82,8.62,11.61,13.03,4.89,5.69,9.67,11.46,14.44,17.24,3.68,4.46,7.34,8.94,10.88,13.51,3.83,4.95,7.44,10.06,11.25,15.01,4.69,6.08,9.51,12.05,14.24,18.1,2.69,3.45,5.44,6.88,7.93,10.48,1.1,1.59.49,2.87-1.71,3.17-5.12.71-10.29,1.23-15.31,2.4-8.32,1.95-15.27,6.5-21.26,12.53-.24.23-.42.52-.66.75-3.72,3.49-5.11,3.1-7.84-1.25-2.49-3.97-5.41-7.67-8.23-11.41-6.08-8.08-12.08-16.22-18.35-24.15-7.08-8.96-14.4-17.74-21.63-26.58-4.34-5.3-8.62-10.63-13.1-15.8-2.74-3.17-5.87-6.01-8.73-9.08-2.37-2.55-4.54-5.28-6.9-7.84-6.84-7.38-13.71-14.71-20.6-22.04-2.39-2.55-4.87-5.01-7.28-7.53Z"/>
    <path class="cls-2" d="m1036.96,663.95c-.38-3.91-1.03-7.79-1.46-11.69-.07-.68.37-1.42.57-2.13-.09-.49-.18-.98-.27-1.48-.99-5-1.93-10.01-2.97-14.99-1.7-8.17-3.38-16.34-5.23-24.47-1.55-6.83-3.1-13.69-5.09-20.4-2.51-8.5-5.52-16.85-8.18-25.31-.49-1.54-.33-3.28-.47-4.93-.09-.32-.18-.64-.26-.96-.52-.46-1.3-.82-1.51-1.39-3.93-10.75-7.73-21.55-11.7-32.28-2.48-6.7-5.03-13.39-7.84-19.95-2.87-6.69-6.19-13.18-9.14-19.83-2.27-5.11-4.13-10.4-6.46-15.48-1.92-4.19-4.3-8.17-6.42-12.28-1.91-3.7-3.8-7.42-5.58-11.19-.5-1.04-.57-2.29-.83-3.44-4.84-8.85-9.57-17.75-14.57-26.51-2.91-5.12-6.24-10-9.38-14.98-.6-1.95-.93-4.04-1.87-5.8-1.06-2-2.75-3.67-4.03-5.57-1.87-2.76-3.62-5.61-5.42-8.43-1.49-2.35-3.09-4.65-4.45-7.08-1.79-3.2-3.39-6.5-5.07-9.76-.3-.08-.59-.16-.89-.23-5.71,16.96-16.88,28.21-34.34,33.48.32,1.22.44,2.54,1.01,3.64,1.43,2.77,3.14,5.41,4.62,8.16,3.86,7.21,7.7,14.42,11.46,21.68,5.05,9.75,10.06,19.53,15,29.34,2.9,5.79,5.78,11.61,8.39,17.54,3.48,7.93,6.85,15.93,9.98,24.01,3.93,10.11,7.72,20.29,11.28,30.53,3.42,9.82,6.94,19.64,9.56,29.68,3.41,13.05,6.25,26.27,8.82,39.51,1.93,9.93,3.84,19.97,4.35,30.03.64,12.66.07,25.4-.42,38.09-.43,11.09-3.6,21.65-7.8,31.87-3.8,9.28-8.8,17.83-16.77,24.19-4.56,3.64-9.08,7.55-14.2,10.21-11.35,5.88-23.85,7.82-36.45,7.6-7.3-.13-14.58-1.96-21.84-3.17-4.1-.68-8.15-1.65-12.23-2.49-9.17-3.27-18.7-5.81-27.45-9.99-13.98-6.67-27.54-14.25-41.08-21.81-7.36-4.11-14.31-8.95-21.45-13.46-.73-.77-1.36-1.67-2.2-2.29-7.58-5.68-15.31-11.16-22.76-16.98-10.21-7.97-20.29-16.11-30.27-24.36-2.45-2.03-3.9-1.88-5.96.4-4.87,5.39-9.86,10.69-15.01,15.81-7.35,7.32-6.03,5.57.33,11.61,11.65,11.06,23.93,21.45,36.08,31.97,3.77,3.26,7.96,6.04,11.96,9.04.4.46.74,1.01,1.21,1.39,4.71,3.74,9.45,7.46,14.18,11.19,2.03.76,4.38,1.1,6.04,2.35,7.68,5.79,15.1,11.91,22.75,17.73,1.92,1.46,5.01,1.7,6.44,3.43,2.67,3.22,7.87,3.26,9.28,7.79,12.66,7.35,25.32,14.7,37.98,22.05,4.71-.21,8.47,1.98,11.97,4.78.19.15.02.74.02,1.13,21.62,9.82,43.67,18.36,67.28,22.14,9.18.6,18.36,1.69,27.54,1.64,6.81-.03,13.62-1.49,20.42-2.39,9.06-1.2,17.2-4.91,25.07-9.3,9.17-5.12,17.23-11.52,23.23-20.27,3.24-4.73,6.85-9.27,9.58-14.28,2.48-4.57,4.24-9.59,5.88-14.55,2.03-6.16,3.73-12.44,5.34-18.73.81-3.17,1.41-6.46,1.59-9.72.7-13.19,1.47-26.4,1.67-39.61.09-6.67-.93-13.37-1.56-20.05Zm-103.7-268.25c-.23-.15-.46-.3-.69-.45.27-.52.53-1.03.8-1.54,0,.65-.14,1.36-.11,1.99Z"/>
    <path class="cls-2" d="m678.02,615.27c2.25,2.36,1.63,5.13-.87,7.23-4.95,4.16-9.72,8.54-14.58,12.81-1.38,1.21-2.66,2.82-4.29,3.36-1.2.4-3.3-.19-4.26-1.11-3.55-3.42-6.78-7.19-10.18-10.77-.48-.5-1.29-.7-1.94-1.03v-11.11h13.34v13.89h5.54v-30.28c2.64,2.58,5.28,5.14,7.91,7.72,3.13,3.08,6.31,6.11,9.33,9.29Z"/>
    <path class="cls-2" d="m641.7,609.89v-12.31h-5.37v19.74c-1.88-1.65-3.81-3.24-5.63-4.95-2.46-2.33-4.83-4.76-7.24-7.15-.44-1.23-1.1-2.44-1.29-3.71-.49-3.3-2.23-4.74-5.54-4.23-3.36-4.33-6.67-8.69-10.08-12.98-4.58-5.75-9.23-11.45-13.86-17.17-5.64-6.99-11.37-13.9-16.9-20.98-3.28-4.2-6.17-8.7-9.33-13-5.65-7.7-11.42-15.3-17.05-23.02-2.38-3.26-4.49-6.72-6.78-10.05-2.05-2.96-4.21-5.84-6.25-8.81-.36-.53-.68-1.42-.49-1.95,2.2-6.26,4.53-12.48,6.75-18.73.99-2.78,1.62-5.7,2.75-8.42.57-1.37,1.9-2.42,3.02-3.78,3.14,4.69,6.25,9.49,9.53,14.17,2.39,3.42,5.05,6.65,7.51,10.02,1.9,2.6,3.58,5.36,5.51,7.94,5.67,7.59,11.44,15.1,17.13,22.68,4.99,6.64,9.83,13.4,14.92,19.96,2.87,3.7,6.11,7.11,9.19,10.65,9.4,10.84,18.69,21.77,28.23,32.48,5.25,5.89,10.94,11.38,16.34,17.13,1.03,1.09,1.66,2.53,2.48,3.81-1.28.11-2.56.22-4.13.36v12.3h-13.42Z"/>
    <path class="cls-2" d="m429.4,139.53c-.33,4.31-.09,8.65-.09,12.98s-.4,8.7.09,12.97c1.43,12.52,2.99,25.04,4.95,37.48,1.26,8.01,2.91,16.01,5.1,23.82,3.72,13.23,7.85,26.36,12.12,39.42,2.94,9,6.23,17.89,9.67,26.71,3.58,9.17,7.58,18.18,11.3,27.3.74,1.81.86,3.87,1.56,5.69,1.43,3.73,2.87,7.48,4.65,11.05,2.11,4.21,4.75,8.16,6.84,12.38,1.18,2.37,1.58,5.12,2.61,7.58.41.98,1.58,1.64,2.76,2.8-.05.1-.3.67-.56,1.25.27-.15.53-.31.8-.47,1.52,2.51,3.11,4.97,4.53,7.53,3.93,7.12,7.86,14.25,11.64,21.44,1.37,2.6,2.25,5.44,3.48,8.11,1.07,2.33,2.41,4.54,3.45,6.88.55,1.23,1.39,2.9.97,3.9-4.11,9.73-8.45,19.35-12.73,29.01-.36.02-.72.04-1.08.06-2.7-4.62-5.41-9.22-8.08-13.86-5.27-9.18-10.66-18.29-15.73-27.59-3.7-6.8-6.89-13.88-10.44-20.77-3.05-5.93-6.39-11.72-9.38-17.68-2.02-4.02-3.54-8.29-5.48-12.35-1.49-3.11-3.42-6-4.92-9.11-2.29-4.73-4.41-9.54-6.52-14.35-2.85-6.49-5.76-12.95-8.4-19.52-3.8-9.47-7.36-19.03-11.04-28.54-1.84-4.75-3.91-9.41-5.55-14.22-1.66-4.87-2.88-9.88-4.38-14.8-2.26-7.4-4.89-14.69-6.84-22.17-2.78-10.71-5.42-21.48-7.5-32.34-2.24-11.76-4.01-23.62-5.51-35.49-1.09-8.62-1.48-17.34-2.04-26.02-.35-5.51-.85-11.06-.54-16.55.44-7.73,1.36-15.44,2.44-23.1.86-6.09,1.86-12.21,3.54-18.11,2.03-7.11,4.66-14.06,7.4-20.93,1.08-2.71,3.77-4.83,4.66-7.57,1.59-4.92,5.11-8.47,8.02-12.35,3.23-4.3,7.29-8.05,11.34-11.65,3.03-2.69,6.41-5.19,10.01-7,5.38-2.71,11.04-4.88,16.67-7.04C462.54.72,472.28.07,482.25,0c12.53-.09,24.93.61,37.21,2.98,4.79.92,9.47,2.52,14.12,4.05,8.99,2.95,18.01,5.85,26.85,9.19,6.62,2.51,13.05,5.56,19.44,8.61,7.09,3.39,14.1,6.95,21.04,10.64,4.1,2.18,8.01,4.76,11.99,7.17,6.72,4.08,13.52,8.02,20.11,12.29,6.21,4.02,12.23,8.34,18.27,12.62,6.14,4.36,12.32,8.68,18.28,13.28,7.94,6.12,15.68,12.48,23.49,18.77,2.95,2.38,5.95,4.73,8.7,7.33,1.29,1.22,2.06,3.01,2.57,3.79-2.23,2.51-3.79,4.23-5.32,5.98-7.28,8.3-14.65,16.53-21.77,24.96-2.26,2.68-4.31,1.65-6.18.21-5.51-4.25-10.77-8.84-16.28-13.1-4.93-3.8-10.06-7.35-15.12-10.99-5.93-4.27-11.7-8.79-17.86-12.71-9.65-6.14-19.45-12.05-29.38-17.71-8.45-4.81-17.04-9.42-25.82-13.59-5.27-2.49-10.97-4.14-16.58-5.85-9.05-2.76-18.04-6.17-27.32-7.62-10.7-1.66-21.56-2.82-32.58-.75-9.15,1.73-17.86,4.09-25.84,8.93-6.17,3.75-11.72,8.17-15.75,14.22-3.33,5-6.94,9.92-9.51,15.31-2.59,5.44-4.28,11.36-5.93,17.2-1.03,3.65-1.26,7.53-1.83,11.31-.65,4.33-1.52,8.65-1.85,13Z"/>
  </g>
  <g id="Cincin_Biru" data-name="Cincin Biru">
    <path class="cls-1" d="m515.24,551c-11.49-5.38-22.98-6.68-35.61-3.89,1.94-8.61,3.59-16.54,5.52-24.4,2.18-8.85,4.39-17.71,6.98-26.45,2.31-7.8,5.14-15.44,7.76-23.14,1.78-5.24,3.56-10.48,5.44-15.69,4.73-13.15,9.4-26.32,14.31-39.39,2.66-7.08,5.74-14,8.68-20.97,2.04-4.83,4.11-9.66,6.28-14.43,2.26-4.97,4.57-9.92,7.02-14.8,4.75-9.44,9.57-18.84,14.45-28.21,2.96-5.68,6.12-11.25,9.14-16.9,3.78-7.06,7.95-13.96,11.18-21.26,7.71-17.44,18.56-32.99,28.69-48.97,6.23-9.84,12.86-19.43,19.55-28.97,6.67-9.52,13.46-18.96,20.5-28.21,8.43-11.06,16.89-22.12,25.88-32.72,9.57-11.28,19.73-22.06,29.74-32.96,5.13-5.59,10.34-11.12,15.81-16.38,6.41-6.16,13.07-12.06,19.73-17.93,6.98-6.15,13.88-12.43,21.21-18.14,8.58-6.67,17.56-12.85,26.44-19.12,3.77-2.66,7.65-5.19,11.67-7.45,1.98-1.12,4.45-1.32,6.58-2.23,3.16-1.34,6.22-2.92,9.3-4.43,6.1-2.98,12.06-6.28,18.33-8.87,3.73-1.54,8.4-1.16,11.78-3.12,3.74-2.18,7.56-1.94,11.34-2.83,9.57-2.26,19.1-3.46,28.85-1.27,3.18.72,6.54.76,9.65,1.68,3.6,1.07,7.16,2.5,10.49,4.26,9.03,4.75,16.77,11.26,22.53,19.62,4.23,6.15,7.71,12.91,10.78,19.74,2.55,5.66,4.53,11.7,5.87,17.77,1.88,8.5,3.25,17.15,4.23,25.8.89,7.86,1.53,15.83,1.28,23.72-.38,11.95-1.49,23.89-2.53,35.82-.67,7.63-1.45,15.27-2.75,22.8-1.72,9.97-3.91,19.86-6.09,29.75-1.78,8.07-3.57,16.16-5.85,24.1-3.72,12.92-7.84,25.73-11.81,38.58-1.56,5.06-3.03,10.15-4.85,15.12-.88,2.41-2.46,4.57-3.82,7.02-6.59-5.4-12.77-11.09-21.34-12.64-2.73-.49-1.46-2.44-1.15-3.63,1.67-6.42,3.61-12.77,5.32-19.19,1.71-6.42,3.23-12.89,4.87-19.33,1.41-5.54,3.24-11.01,4.24-16.62,1.64-9.24,3.08-18.53,4.01-27.86,1.02-10.27,1.95-20.62,1.88-30.93-.08-12.91-1.19-25.83-4.56-38.39-2.63-9.82-6.28-19.34-12.75-27.26-5.95-7.28-13.06-13.11-22.47-16.17-11.52-3.74-22.88-3.52-34.45-1.16-4.37.89-8.83,1.57-13.03,2.98-4.6,1.54-9.01,3.7-13.41,5.8-5.87,2.8-11.67,5.74-17.44,8.73-2.24,1.16-4.31,2.66-6.49,3.96-2.79,1.67-5.61,3.28-8.42,4.93-4.75,2.78-8.87,6.31-12.84,10.13-4.16,4-8.85,7.44-13.25,11.19-8.5,7.23-17.16,14.29-25.37,21.82-5.4,4.96-10.08,10.71-15.22,15.96-2.79,2.85-5.94,5.35-8.83,8.11-.66.63-.83,1.75-1.43,2.47-6.66,7.91-13.47,15.7-20,23.71-4.99,6.12-9.67,12.5-14.46,18.77-2.91,3.81-5.8,7.64-8.67,11.47-3.25,4.34-6.53,8.66-9.7,13.05-4.33,5.99-8.68,11.97-12.8,18.1-3.09,4.59-5.82,9.43-8.75,14.13-4.09,6.55-8.31,13.02-12.32,19.63-2.62,4.32-4.86,8.88-7.47,13.22-1.64,2.72-3.9,5.07-5.43,7.83-2.06,3.72-3.69,7.67-5.49,11.54-1.41,3.03-2.65,6.15-4.2,9.11-3.84,7.33-7.92,14.53-11.69,21.89-2.59,5.07-4.42,10.56-7.3,15.44-6.93,11.76-10.9,24.78-16.4,37.15-5.68,12.78-10.59,25.94-15.13,39.17-4.65,13.53-8.66,27.29-12.56,41.06-2.48,8.76-5.01,17.64-5.97,26.64-.48,4.47-2.71,8.02-3.19,12.55Z"/>
    <path class="cls-1" d="m718.46,628.64c-3.77,3.9-7.49,7.85-11.33,11.67-6.64,6.62-13.19,13.34-20.09,19.67-6.25,5.73-12.78,11.17-19.43,16.42-9.13,7.21-18.3,14.42-27.84,21.06-6.99,4.87-14.65,8.75-21.94,13.2-11.38,6.94-23.57,12.15-36.16,16.27-13.2,4.32-26.85,6.92-40.8,5.52-9.45-.95-18.83-2.85-26.96-8.43-3.28-2.25-6.94-4.01-9.97-6.54-9.66-8.07-16.25-18.38-20.88-30.01-5.06-12.74-8.1-25.98-9.55-39.59-.15-1.4-.02-2.83-.02-5.01,13.55,3.11,26.83,4.2,40.03-.55,3.36,7.49,6.23,14.89,9.92,21.87,4.68,8.84,11.4,15.56,20.39,20.71,12.46,7.13,25.43,6.35,38.4,4.47,7.71-1.11,15.17-4.46,22.56-7.26,11.57-4.39,21.86-11.22,32.45-17.5,10.95-6.49,20.45-14.82,30.34-22.67,5.69-4.52,11.11-9.37,16.65-14.07,4.29,2.06,5.81,1.16,5.77-3.42,0-.87-.05-1.74-.08-2.62,3.79-3.68,7.57-7.36,11.38-11.02.45-.43,1.03-.73,1.55-1.08-.49,2.45-.79,4.95-1.51,7.33-1.13,3.74-2.55,7.4-3.85,11.13,5.38,1.29,6.51.6,7.67-4.26,1.14-4.76,1.43-5.05,6.37-4.96,1.71.03,3.96-.9,4.74,1.75.77,2.63,1.46,5.27,2.18,7.91Z"/>
    <path class="cls-1" d="m809.81,510.89c-.1-1.85-.17-2.9-.2-3.95-.24-8.29-.45-16.58-.73-24.86-.09-2.74-.33-5.48-.6-8.2-.32-3.28,1.15-5.76,3.14-8.17.97-1.17,1.46-2.74,2.19-4.12,4.64-8.76,9.32-17.49,13.92-26.27,4.98-9.49,9.89-19.01,14.83-28.53.93-1.79,1.81-3.61,2.71-5.42,1.27-2.56,4.98-4.14,7.75-3.74,5.35.77,10.72,1.44,16.11,1.85,3.59.27,4.12.71,2.53,3.81-8.42,16.44-16.75,32.93-25.39,49.25-3.88,7.33-8.37,14.34-12.64,21.45-5.19,8.66-10.37,17.33-15.72,25.89-2.23,3.56-4.89,6.84-7.89,11Z"/>
    <path class="cls-1" d="m747.87,595.29c-2.5,2.87-5,5.75-7.51,8.62-1.11-1.75-1.9-3.9-3.44-5.14-1.31-1.06-3.46-1.29-5.27-1.39-.43-.02-1.37,1.92-1.39,2.97-.12,5.82-.03,11.65-.02,17.48-3.54.23-4.44,3.81-6.9,5.43-2.97-8.63-5.94-17.26-8.9-25.88,3.75-4.17,7.41-8.44,11.34-12.44.94-.95,2.78-1.01,4.2-1.49,2.66.21,5.33.54,7.99.59,3.94.07,7.76.3,10.65,3.57.18-.22.33-.6.59-.7,1.14-.46,2.32-.83,3.48-1.24-.31,1.03-.55,2.09-.96,3.08-.57,1.37-1.28,2.67-1.93,4.01,0,0,0-.01,0-.01-.65.85-1.3,1.69-1.95,2.54Z"/>
  </g>
  <g id="Himti">
    <path id="T" class="cls-2" d="m847.76,395.81c-14.61-.67-29.22-1.35-44.59-2.05,0,5.76.02,11.65-.01,17.53,0,2.04-.21,4.07-.22,6.11-.04,7.54.03,15.08-.05,22.62-.04,3.3-.53,6.6-.5,9.89.11,10.96.31,21.91.56,32.86.17,7.45.47,14.9.73,22.35.44,12.18.97,24.35,1.32,36.53.3,10.72.39,21.45.64,32.18.06,2.7-.55,4.24-3.79,4.4-6.04.31-12.05,1.3-18.09,1.65-6.95.41-13.94.74-20.89.52-8.37-.26-16.72-1.14-25.08-1.75-.92-1.31-2.66-2.63-2.65-3.93.1-15.27.37-30.54.79-45.8.23-8.26,1.1-16.51,1.19-24.76.33-32.11.5-64.23.59-96.34,0-3.57-.78-7.16-1.48-10.68-.13-.67-1.61-1.08-2.46-1.61-13.33.72-26.65,1.44-39.97,2.15-4.03.19-8.08.73-12.07.43-2.45-.19-2.15-2.82-1.74-4.58.78-3.31,1.93-6.52,2.82-9.8,2.35-8.62,3.3-17.45,3.87-26.35.31-4.7,1.15-9.38,2.08-14,.19-.94,1.86-2.27,2.83-2.25,10.87.28,21.74.73,32.6,1.27,6.01.29,12,1.15,17.99,1.2,18.64.12,37.27.03,55.9-.11,3.65-.02,7.29-.36,10.94-.63.91-.08,1.82-.14,2.73-.2,2.73.18,5.47.36,8.32.55-1.86,23.35,8.51,39.88,27.8,51.57-.03.34-.07.69-.11,1.03Z"/>
    <g id="M">
      <path class="cls-2" d="m500.89,452.69c-2.67,7.61-5.38,15.22-7.88,22.89-1.42,4.36-2.45,8.84-3.67,13.27-.2.74-.31,1.59-.74,2.18-.54.71-1.37,1.19-2.08,1.78-.5-.62-1.17-1.18-1.49-1.88-2.87-6.39-5.65-12.83-8.56-19.21-.45-.98-1.46-1.71-2.21-2.56-.41.18-.83.35-1.25.53.47,26.39.93,52.78,1.39,78.67-9.24,3.98-17.23,8.36-22.43,16.46-2.69,4.18-5.01,8.61-7.81,12.72-.75,1.11-2.62,2-4.01,2.04-7.69.22-15.41.34-23.1.07-2.69-.1-5.35-1.41-8.02-2.17.16-5.84.38-11.68.46-17.52.11-7.9.08-15.8.18-23.7.02-1.15.35-2.31.6-3.45.16-.73.59-1.42.62-2.13.26-7.38.07-14.79.77-22.12,2.47-25.9,1.36-51.86.97-77.76-.23-15.43-.85-30.88-1.15-46.32-.12-6.4-1.55-12.76-1.74-19.16-.2-6.93.19-13.91.73-20.84.1-1.21,2.21-3.15,3.48-3.22,5.85-.34,11.73-.14,17.59-.13,3.76-.21,7.52-.4,11.27-.65,1.7-.11,2.58.28,3.44,2.12,7.97,17.12,16.06,34.2,24.33,51.18,4.87,10.02,10.02,19.9,15.26,29.73,3.87,7.28,8.07,14.39,12.15,21.55.37.64.82,1.34,1.41,1.72,2.39,1.54,2.31,3.56,1.49,5.91Z"/>
      <path class="cls-2" d="m560.04,535.2c.77,1.45,1.46,3.53,1,4.94-2.12,6.35-4.65,12.56-7.05,18.82-2.11,5.51-4.06,11.09-6.46,16.46-.89,1.98-2.76,3.61-4.47,5.05-.42.36-2.49-.3-2.91-1.02-2.86-4.83-5.47-9.79-8.17-14.71t.02.01c.08-.15.17-.3.26-.44-.09.14-.19.27-.28.42-.6-.61-1.21-1.23-1.8-1.84-2.92-2.95-5.91-5.84-8.72-8.9-.53-.57-.65-1.84-.47-2.69.91-4.38,1.94-8.74,3.02-13.08,2.71-10.86,5.5-21.7,8.19-32.57.6-2.45.89-4.98,1.32-7.48.31-.02.61-.04.92-.07.95,1.59,1.89,3.17,2.84,4.75,3.07,3.95,6.28,7.8,9.16,11.88,3.18,4.47,6.03,9.16,9.06,13.74,1.5,2.26,3.29,4.35,4.54,6.73Z"/>
      <path class="cls-2" d="m661.68,573.23c-.68,1.85-1.07,4.42-2.45,5.25-2.35,1.4-5.32,1.43-7.42-1.22-.15-.17-.29-.33-.44-.49l-.18-.26c-.06-.42.04-.99-.2-1.26-4.6-5.37-9.17-10.75-13.9-16-1.49-1.66-3.41-2.95-5.13-4.41l-.19-.18c-.77-.37-1.74-.56-2.26-1.15-3.09-3.47-6.07-7.03-9.11-10.55-3.11-3.62-6.26-7.21-9.38-10.82-4.49-5.18-8.72-10.61-13.51-15.5-4.44-4.52-4.45-10.03-4.41-15.52.07-9.22.61-18.43.95-27.64-.18-2.27-.35-4.53-.53-6.8-.47-.08-.95-.17-1.42-.25-4.12,9.16-8.23,18.32-12.8,28.5-3.65-5.37-6.85-10.08-10.05-14.8-3.2-4.49-6.52-8.9-9.57-13.49-2.71-4.09-5.01-8.47-7.73-12.56-1.38-2.08-1.84-3.4-.42-6.02,3.14-5.78,5.36-12.05,7.99-18.11,3.68-8.47,7.31-16.97,11.1-25.39,4.95-11.02,10.09-21.96,15.03-32.98,3.1-6.92,5.91-13.98,9-20.9,1.34-3.02,2.87-6,4.7-8.74.62-.93,2.4-1.5,3.66-1.5,4.73-.01,9.46.45,14.19.43,4.96-.01,9.92-.31,14.87-.61,5.72-.34,11.42-1.04,17.14-1.14,3.55-.06,7.12.71,10.68,1.1.42.96,1.22,1.92,1.22,2.88.06,12.52.14,25.05-.08,37.58-.25,14.27-.83,28.53-1.21,42.79-.46,17.24-1.18,34.48-1.2,51.72-.01,14.9.76,29.81,1.25,44.71.38,11.37.87,22.75,1.3,34.12.21,5.63.39,11.27.57,16.9.03.77.2,1.63-.06,2.31Z"/>
    </g>
    <g id="I">
      <path class="cls-2" d="m360.8,439.07c-.36,9.17-.62,18.35-.53,27.52.23,21.36.67,42.71,1.07,64.07.25,13.93.61,27.85.85,41.78.08,4.88.01,5.08-4.72,5.68-5.85.75-11.73,1.53-17.61,1.57-13.63.11-27.26-.1-40.88-.46-2.58-.07-5.82-.24-6.69-3.86-.37-.17-1.06-.38-1.06-.52.44-5.13,1.11-10.24,1.4-15.38.34-6.06.3-12.15.54-18.22.11-2.73.48-5.46.77-8.19.07-.65.39-1.28.41-1.92.26-5.93.49-11.86.69-17.78.45-13.47,1.05-26.93,1.26-40.39.13-8.06-.55-16.12-.55-24.18s.68-16.57.55-24.85c-.21-13.36-.87-26.71-1.28-40.06-.26-8.62-.45-17.23-.61-25.85-.07-3.82.1-7.64-.04-11.45-.11-3.05,1.73-3.95,4.2-4.15,2.25-.18,4.51-.13,6.77-.13,14.3,0,28.6.01,42.9.03,3.01-.41,6.01-1.02,9.03-1.16,5.63-.26,6.82.95,6.74,6.44-.15,10.42-.2,20.84-.59,31.24-.77,20.08-1.83,40.14-2.62,60.22Z"/>
    </g>
    <g id="H">
      <path class="cls-2" d="m236.97,583c-.05.76-1.33,2.05-2.08,2.08-16.68.55-33.38,1.14-50.07,1.3-5.22.05-10.45-1.12-15.67-1.74-2.54-1.75-2.15-4.4-1.95-6.87.31-3.71,1.1-7.39,1.28-11.09.38-8.04.55-16.09.71-24.14.25-12.81.46-25.62.58-38.43.03-2.4-.1-4.89-.78-7.16-.38-1.29-2.01-2.2-3.08-3.28-.1-.07-.2-.15-.3-.22-.18-.16-.36-.32-.53-.49-7.94-1.31-15.96-1.53-23.97-1.49-17.52.08-35.04.21-52.55.43-5.77.07-9.38,3.69-9.29,9.5.34,21.24.87,42.47,1.26,63.71.12,6.38.02,12.76.02,19.84-6.58.56-12.23,1.42-17.89,1.44-14.3.05-28.6-.17-42.9-.57-2.42-.07-4.81-1.6-7.21-2.45-.63-1.34-1.84-2.7-1.79-4.01.2-4.6.98-9.18,1.24-13.78.38-6.61.58-13.24.71-19.87.28-14.05.45-28.11.74-42.16.02-.93.74-1.83,1.09-2.76.32-.86.81-1.75.82-2.63.04-16.42,1.23-32.95-.33-49.22-1.4-14.53-1.25-28.97-1.67-43.46-.37-13.14-1.03-26.27-1.21-39.41-.08-5.56.76-11.13,1.21-17.09h52.55c3.78-.39,7.55-.83,11.34-1.14,2.71-.22,4.06,1.09,3.91,3.88-.65,12.32-1.29,24.64-1.94,36.96-.61,11.77-1.26,23.53-1.8,35.31-.09,2.17-.29,4.67.64,6.46.85,1.65,2.98,3.13,4.83,3.66,3.12.89,6.47.97,9.72,1.39,23.06.01,46.13.02,69.19.03.89,0,1.78.03,2.66.03,6.38.06,8.98-3.17,8.15-9.5-.72-5.45-1.18-10.95-1.39-16.43-.56-14.46-1.02-28.93-1.32-43.4-.09-4.84.3-9.7.78-14.52.1-.97,1.63-2.56,2.52-2.57,15.74-.15,31.48-.11,47.23-.11,3.96-.24,7.95-.27,11.88-.78,3.7-.47,5.18,1.52,5.15,5.33-.08,9.75-.24,19.5-.51,29.25-.38,13.37-1.06,26.73-1.3,40.11-.47,25.88-1.22,51.77-.9,77.65.27,21.64,2.01,43.25,2.87,64.89.23,5.82-.27,11.69-.65,17.52Z"/>
    </g>
    <g id="I-2" data-name="I">
      <path class="cls-2" d="m921.03,356.3c-.16-4.5-.06-9-.06-13.64,8.67-.57,17.03-1.17,25.4-1.63.77-.04,1.6.86,2.4,1.33,1.7,18.49.01,36.88-1.74,56.1-4.37-7.07-8.38-13.56-12.39-20.05-1.9-2.63-3.83-5.25-5.7-7.9-2.25-3.2-4.57-6.35-6.61-9.68-.8-1.3-1.24-3-1.3-4.53Z"/>
      <path class="cls-2" d="m947.38,551.06c.04,7.76.11,15.52.08,23.28-.02,3.48-1.3,4.69-4.81,4.8-14.78.45-29.55,1.03-44.33,1.26-5.59.09-11.22-.42-16.77-1.15-1.82-.24-3.43-2.04-5.14-3.12.33-6.7.65-13.4.99-20.1.03-.66.25-1.3.26-1.96.25-8.39.43-16.78.71-25.17.41-12.36.87-24.71,1.34-37.06.17-4.41.52-8.81.61-13.21.27-14.38.6-28.76.6-43.14,0-7.15-.58-14.31-1.09-21.45-.24-3.31-.99-6.58-1.36-9.89-.15-1.35.1-2.75.17-4.13.29-.06.58-.13.87-.19,2.23,4.58,4.47,9.17,6.71,13.75,3.51,6.95,7.09,13.86,10.5,20.86,3.71,7.62,6.79,15.58,11.02,22.88,3.21,5.54,5.56,11.42,8.36,17.1,2.88,5.86,4.58,12.31,7.49,18.16,4.47,8.97,7.57,18.45,11.29,27.69,3.82,9.49,8.18,18.77,12.24,28.16.34.77.25,1.75.26,2.63Z"/>
    </g>
  </g>
  <g id="Himpunan_Mahasiswa_Teknik_Informatika" data-name="Himpunan Mahasiswa Teknik Informatika">
    <path class="cls-3 blink1" d="m48.22,226.13h-5.92v-31.9c2.44,0,4.94-.13,7.4.1.61.06,1.31,1.27,1.6,2.07,2.26,6.25,4.44,12.53,6.65,18.79.21.58.51,1.12.93,2.04,2.46-6.84,4.99-13.19,6.94-19.71.8-2.67,1.78-3.68,4.47-3.32,1.52.21,3.09.04,4.92.04v31.92h-5.87v-22.14c-.18-.03-.35-.06-.53-.09-2.56,7.36-5.13,14.71-7.71,22.09-3.07.9-4.9.22-5.9-3.31-1.6-5.65-3.85-11.12-5.84-16.66-.19-.55-.49-1.06-1.14-2.44v22.52Z"/>
    <path class="cls-3 blink2" d="m28.56,258.39c-2.53,7.18-5.06,14.36-7.64,21.68h-4.66c-2.53-7.18-5.08-14.4-7.62-21.62-.18.04-.37.07-.55.11v21.51H2.22v-31.7h8.16c2.61,7.43,5.25,14.98,8.19,23.36,2.21-6.21,4.18-11.63,6.08-17.07q2.51-7.2,10.46-6.14v31.57h-6.02v-21.48c-.18-.07-.35-.15-.53-.22Z"/>
    <path class="cls-3 blink3" d="m88.56,302.33h5.84v31.42c-5.36,1.03-5.43.98-8.22-3.49-3.42-5.49-6.88-10.95-10.72-17.06v20.79h-5.97v-31.5c4.17-1.51,6.3.52,8.24,3.77,3.21,5.42,6.79,10.62,10.83,15.67v-19.6Z"/>
    <path class="cls-3 blink4" d="m86.89,226.18h-6.1v-31.81c4.38,0,8.78-.27,13.13.08,3.27.27,6.08,4.07,6.7,8.07.55,3.58-1.4,8.07-4.59,9.54-1.93.89-4.17,1.37-6.3,1.48-2.1.11-3,.59-2.88,2.85.17,3.19.04,6.39.04,9.79Z"/>
    <polygon class="cls-3 blink1" points="74.12 280.02 68.19 280.02 68.19 248.43 73.87 248.43 73.87 261.09 84.53 261.09 84.53 248.38 90.52 248.38 90.52 280.14 84.76 280.14 84.76 267.14 74.12 267.14 74.12 280.02"/>
    <polygon class="cls-3 blink2" points="8.23 226.14 2.25 226.14 2.25 194.38 8.14 194.38 8.14 206.86 18.63 206.86 18.63 194.41 24.61 194.41 24.61 226.09 18.9 226.09 18.9 213.17 8.23 213.17 8.23 226.14"/>
    <polygon class="cls-3 blink3" points="21.54 302.33 38.28 302.33 38.28 307.41 27.44 307.41 27.44 315.46 38.28 315.46 38.28 320.79 27.45 320.79 27.45 328.76 38.26 328.76 38.26 333.99 21.54 333.99 21.54 302.33"/>
    <path class="cls-3 blink4" d="m58,315.76c-1.27,1.83-1.19,3.05.05,4.86,2.96,4.31,5.64,8.82,8.44,13.25-4.58,1.23-7.56-.04-9.54-4.44-1.65-3.67-4.13-6.95-6.71-11.16v15.65h-6.09v-31.63h5.78v15.29c.2.08.4.17.6.26,2.2-3.57,4.8-6.95,6.5-10.74,1.95-4.35,4.72-6.06,9.55-4.63-2.81,4.39-5.56,8.93-8.58,13.29Z"/>
    <polygon class="cls-3 blink1" points="0 302.27 17.99 302.27 17.99 307.31 12.16 307.31 12.16 334.02 5.64 334.02 5.64 307.54 0 307.54 0 302.27"/>
    <rect class="cls-3 blink2" x="30.86" y="194.45" width="5.63" height="31.73"/>
    <path class="cls-3 blink3" d="m53.49,273.49c3.17-.39,4.68.92,5.21,3.81.43,2.35,1.71,3.35,4.13,2.95.96-.15,1.97-.02,3.49-.02-4-10.5-7.76-20.52-11.75-30.45-.34-.84-2.18-1.22-3.4-1.52-1.55-.39-2.58.15-3.21,1.89-2.08,5.76-4.37,11.45-6.59,17.16-1.63,4.2-3.26,8.39-4.99,12.82h6.18c.87-2.19,1.71-4.3,2.62-6.57,2.79,0,5.59.27,8.31-.07Zm-2.2-16.95c1.56,4.24,2.75,7.49,4.03,10.95h-8.2c1.36-3.58,2.58-6.77,4.17-10.95Z"/>
    <path class="cls-3 blink4" d="m266.18,321.42c-.38.15-.77.24-1.5.46,2.62,4.14,5.11,8.07,7.65,12.07-4.92,1.13-8.19-.06-10.01-4.89-1.15-3.05-3.11-5.79-4.71-8.67-.19.01-.39.01-.58.02v13.57h-6.27v-32.14c5.08.36,10.12.42,15.06,1.17,3.68.56,6.43,4.82,6.56,8.9.13,4.26-2.22,7.87-6.2,9.51Z"/>
    <path class="cls-3 blink1" d="m246.5,318.13c0,9.53-7.16,16.71-16.68,16.7-9.07-.01-16.44-7.47-16.41-16.61.03-9.01,7.63-16.66,16.58-16.67,9.15-.01,16.5,7.38,16.51,16.58Z"/>
    <path class="cls-3 blink2" d="m136.5,226.12h-5.93v-31.57c4.14-1.19,6.49.28,8.47,3.76,3.09,5.44,6.73,10.56,10.69,16.65v-20.58h5.87v31.65c-3.59.88-6.04.14-8.01-3.48-3.15-5.81-7.03-11.23-11.09-17.59v21.16Z"/>
    <rect class="cls-3 blink3" x="150.71" y="302.24" width="5.66" height="31.78"/>
    <path class="cls-3 blink4" d="m194.63,226.11h-5.89v-31.61c4.11-1.03,6.61.16,8.64,3.91,2.93,5.38,6.62,10.35,10.35,16.05v-20.1h5.9v31.62c-3.72,1.26-5.91-.21-7.81-3.54-3.28-5.75-7.03-11.23-11.19-16.59v20.26Z"/>
    <path class="cls-3 blink1" d="m196.7,260.06c-1.31,4.53-2.41,8.28-3.48,12.04-.39,1.37-.7,2.75-1.09,4.11-1.23,4.2-1.25,4.2-5.91,3.82-3.02-10.44-6.07-20.96-9.13-31.54,6.34-.73,6.21-.7,7.49,5.15,1.07,4.86,2.49,9.64,4.41,14.44,1.46-5.37,3.04-10.71,4.35-16.11.74-3.03,2.02-4.69,5.5-3.46,1.83,6.47,3.69,13.04,5.55,19.62.2-.02.41-.03.61-.04,1.68-6.56,3.35-13.12,5.06-19.8h6.19c-3.09,10.68-6.14,21.21-9.21,31.83h-4.89c-1.73-6.37-3.47-12.75-5.45-20.06Z"/>
    <polygon class="cls-3 blink2" points="193.34 302.24 210.23 302.24 210.23 307.45 199.32 307.45 199.32 315.3 210.21 315.3 210.21 320.71 199.24 320.71 199.24 333.99 193.34 333.99 193.34 302.24"/>
    <path class="cls-3 blink3" d="m156.82,226.62c1.85-4.72,3.47-8.8,5.04-12.89,2.27-5.89,4.55-11.78,6.73-17.7.7-1.89,2.07-2.1,3.63-1.72,1.07.26,2.68.66,2.98,1.42,4.05,10.08,7.91,20.24,11.89,30.56-.92,0-1.6-.09-2.23.02-3.24.59-5.19-.55-5.76-3.93-.36-2.13-1.6-3.22-3.94-2.83-1.08.18-2.22.13-3.31.01-4.02-.42-7.08-.01-8.1,5.04-.68,3.39-4.09,1.01-6.93,2.02Z"/>
    <rect class="cls-3 blink4" x="112.13" y="302.24" width="5.66" height="31.77"/>
    <path class="cls-3 blink1" d="m420.83,330.54c-2.79-8.51-5.78-16.96-8.56-25.47-.7-2.17-1.57-3.14-4.1-3.18-2.69-.05-3.32,1.26-3.97,3.33-2.88,9.11-5.87,18.18-8.98,27.77-4.27-5.66-8.22-10.89-12.16-16.11,4.13-4.8,8.02-9.31,12.38-14.36-4.07-.77-6.74-1.04-8.96,1.93-2.55,3.4-5.51,6.5-8.85,10.38v-12.59h-6.69c0,8.88-.04,17.52.01,26.17.03,6.27-.9,5.9,5.9,5.7.19,0,.37-.19.94-.49v-14.13c3.38,4.57,6.17,8.56,9.22,12.33.84,1.03,2.43,1.75,3.78,1.96,1.55.24,3.32-.69,4.82-.34,4.64,1.07,5.32.83,6.67-3.58.23-.74.5-1.47.76-2.23h10.73c.67,1.89.78,3.97,1.88,4.87,1.19.99,3.28.88,4.98,1.25.09-1.08.51-2.26.2-3.21Zm-16.21-8.31c1.1-3.81,2.17-7.53,3.53-12.25,1.46,4.62,2.62,8.31,3.87,12.25h-7.4Z"/>
    <rect class="cls-3 blink2" x="146.85" y="248.44" width="6.02" height="31.69"/>
    <path class="cls-3 blink3" d="m142.18,273.56c-1.62,5.26-6.18,8.22-11.26,7.29-4.65-.86-7.86-5.33-7.41-10.49h4.83c.12.62,0,1.58.43,1.97,1.25,1.18,2.66,2.87,4.09,2.95,1.18.06,3.02-1.65,3.59-2.99.8-1.9.18-3.95-2.08-4.92-1.51-.64-3.02-1.24-4.54-1.85-4.99-2-6.69-5.7-5.24-11.49,1.1-4.44,5.14-7.06,9.98-6.49,4.29.51,6.97,3.93,7.13,9.25-2.34-.14-5,1.1-6.17-2.49-.24-.74-2.37-1.51-3.3-1.22-1.12.36-2.55,1.79-2.62,2.84-.08,1.22.85,3.01,1.9,3.7,1.69,1.1,3.88,1.4,5.79,2.2,4.75,1.99,6.53,6.36,4.88,11.74Z"/>
    <path class="cls-3 blink4" d="m219.79,280.14c.8-2.12,1.61-4.25,2.48-6.58h6.21q6.3,0,8.2,6.05c.06.18.28.31.46.51h5.97c-.03-.55.07-1.02-.08-1.4-3.67-9.48-7.45-18.91-10.98-28.44-.65-1.77-1.41-2.2-3.05-2.09-1.6.11-3.12-.33-3.91,1.93-1.76,5.05-3.89,9.97-5.81,14.96-1.9,4.93-3.73,9.89-5.67,15.06h6.18Zm8.67-23.52c1.53,4.11,2.73,7.33,4.02,10.8h-8.1c1.32-3.49,2.53-6.7,4.08-10.8Z"/>
    <path class="cls-3 blink1" d="m104.57,218.49c-.02-7.94,0-15.88,0-24.03h5.48c0,5.64-.06,11.26.02,16.88.03,1.97.05,4.07.73,5.86.48,1.24,1.94,2.5,3.24,2.95,1.82.63,3.5-.15,3.93-2.38.25-1.28.61-2.56.62-3.85.06-6.4.03-12.81.03-19.58h5.91c0,8.26.28,16.54-.11,24.79-.23,4.7-4.99,7.87-10.25,7.74-4.79-.13-9.58-3.35-9.6-8.38Z"/>
    <polygon class="cls-3 blink2" points="338.5 302.35 356.23 302.35 356.23 307.49 350.38 307.49 350.38 334.01 344.4 334.01 344.4 307.64 338.5 307.64 338.5 302.35"/>
    <path class="cls-3 blink3" d="m157.25,274.24c-.34-1.21-.53-2.46-.83-3.89h5.25c.26.72.34,1.85.95,2.44,1.1,1.07,2.61,2.66,3.75,2.51,1.43-.19,3.15-1.69,3.78-3.06.44-.98-.31-3.22-1.26-3.95-1.75-1.35-4.05-1.98-6.11-2.94-3.46-1.61-5.42-4.82-5.18-8.4.32-4.8,2.54-8.12,6.63-9.15,3.5-.88,6.89-.27,9.08,2.93,1.11,1.62,1.61,3.65,2.57,5.92h-5.78c-.09-.38-.04-1.11-.35-1.34-1.21-.88-2.49-2.03-3.86-2.22-.77-.11-2.49,1.46-2.51,2.3-.03,1.42.57,3.33,1.6,4.17,1.34,1.1,3.35,1.4,5.1,1.98,4.77,1.59,6.59,5.16,5.79,11.4-.51,3.94-4.42,7.57-8.52,7.92-4.84.4-8.86-2.21-10.1-6.62Z"/>
    <path class="cls-3 blink4" d="m181.47,302.29h5.72v31.52c-3.8,1.22-6.11-.02-8.03-3.42-3.22-5.71-6.94-11.14-10.99-17.54v21.13h-6.03v-31.57c3.97-1.07,6.45.18,8.46,3.72,3.13,5.48,6.82,10.65,10.87,15.86v-19.7Z"/>
    <rect class="cls-3 blink1" x="100.27" y="302.35" width="5.62" height="31.72"/>
    <path class="cls-3 blink2" d="m301.29,302.28h8.04v31.76h-5.48v-21.43c-.27-.07-.54-.15-.81-.22-2.53,7.19-5.06,14.38-7.63,21.69h-4.73c-2.59-7.39-5.18-14.76-7.77-22.13-.17-.01-.35-.02-.53-.03v22.08h-5.74v-31.68h8.14c2.63,7.48,5.31,15.11,8.29,23.6,2.93-8.42,5.55-15.96,8.22-23.64Z"/>
    <path class="cls-3 blink3" d="m330.26,306.54c3.43,9.05,6.83,18.11,10.35,27.45h-6.51c-.1-.23-.27-.49-.34-.78q-1.53-5.7-7.34-5.7c-1.55,0-3.1.07-4.65-.03-1.65-.1-2.42.35-2.99,2.15-1.58,4.94-1.75,4.88-7.89,4.32,4.17-10.73,8.22-21.16,12.27-31.59,5.28-.55,5.3-.56,7.1,4.18Z"/>
    <rect class="cls-3 blink4" x="359.82" y="302.21" width="5.66" height="31.82"/>
    <path class="cls-3 blink1" d="m121.95,280.05q-6.22.46-8.85-6.31h-12.26c-.78,1.99-1.61,4.1-2.49,6.36h-6.21c2.89-7.51,5.76-14.95,8.63-22.4.83-2.14,1.77-4.25,2.48-6.43.68-2.08,1.6-3.14,4.14-3.19,2.65-.07,3.1,1.57,3.72,3.21,3.65,9.55,7.22,19.13,10.84,28.76Z"/>
    <path class="cls-3 blink2" d="m134.82,302.1c-3.54,5.53-6.86,10.74-10.26,16.05,3.25,5.15,6.51,10.33,9.8,15.55-5.61,1.16-5.87,1.08-8.71-3.43-2.1-3.33-4.25-6.64-6.14-10.09-.51-.93-.62-2.57-.14-3.46,2.18-4.04,4.87-7.82,6.93-11.92,1.92-3.83,5.12-2.37,8.52-2.7Z"/>
  </g>
  <g id="Universitas_Muhammadiyah_Tangerang" data-name="Universitas Muhammadiyah Tangerang">
    <path class="cls-3" d="m114.7,597.82c-.96,2.97-1.85,6.03-2.94,9.03-2.07,5.76-4.27,11.46-6.38,17.21-1.73,4.72-1.7,4.73-7.15,4.49-3.32-10.18-6.67-20.46-10.11-31.04h5.57c2.43,7.64,4.89,15.37,7.56,23.78,2.36-6.99,4.65-13.35,6.63-19.81,1.04-3.39,2.7-5.07,6.82-3.66Z"/>
    <path class="cls-3" d="m124.67,624.64h13v3.77h-18.27v-30.79h17.46c.08,1.16.15,2.22.24,3.63h-12.44v9.13h11.69v3.57h-11.68v10.69Z"/>
    <path class="cls-3" d="m242.05,597.32c-2.25.05-3.85.12-4.66,2.81-1.93,6.36-4.23,12.6-6.37,18.9-1.05,3.11-2.09,6.22-3.34,9.95,2.65-.95,5.18,1.18,6.3-2.6,2.37-8.02,2.6-7.95,11.11-7.63.33.01.64.14,1.02.22.57,1.75,1.12,3.52,1.71,5.27q1.52,4.57,7.13,4.27c-3.31-9.58-6.59-18.95-9.77-28.35-.55-1.65-.89-2.9-3.13-2.84Zm-4.73,17.92c1.22-3.63,2.35-7.01,3.83-11.44,1.53,4.31,2.74,7.72,4.06,11.44h-7.89Z"/>
    <polygon class="cls-3" points="228.94 601.19 219.93 601.19 219.93 628.43 214.53 628.43 214.53 601.38 205.29 601.38 205.29 597.63 228.94 597.63 228.94 601.19"/>
    <path class="cls-3" d="m359.64,613.92c-.01,2.1.19,4.27-.25,6.29-1.36,6.17-5.8,9.21-12.35,8.77-7.18-.48-10.58-3.77-10.81-11.02-.2-6.74-.04-13.49-.04-20.41h4.84c0,2.34-.06,4.73,0,7.12.15,4.96.17,9.94.64,14.88.31,3.28,3.3,5.72,6.17,5.73,3.01,0,6.1-2.63,6.31-6.01.38-5.94.4-11.91.55-17.87.03-1.21,0-2.42,0-3.92h4.93c0,5.46.02,10.95-.01,16.44Z"/>
    <path class="cls-3" d="m563.81,615.29c-2.04,11.9-9.73,13.68-19.77,13.7-2.1,0-4.2-.28-6.62-.46v-30.18c6.02-1.22,12-1.43,17.88.43,6.07,1.91,9.71,9.48,8.51,16.51Z"/>
    <path class="cls-3" d="m659.25,597.23c.51.35,1.02.69,1.53,1.03v30.28h-5.54v-13.89h-13.34v11.11c-.09.85-.18,1.7-.28,2.72h-5.29v-30.9h5.37v12.31h13.42v-12.3c1.57-.14,2.85-.25,4.13-.36Z"/>
    <path class="cls-3" d="m65.29,597.54h5.03v30.74c-3.51,1.26-5.69-.03-7.49-3.15-3.56-6.15-7.42-12.13-11.49-18.71v22.07h-4.96v-30.78c3.55-1.05,5.67-.06,7.45,3.04,3.47,6.02,7.39,11.79,11.46,18.2v-21.41Z"/>
    <path class="cls-3" d="m460.33,598.8c.56,8.54,1.12,17.08,1.68,25.62v4.05h-4.95c-.58-6.52-1.17-13.15-1.76-19.79-.16-.06-.32-.13-.48-.19-1.56,4.16-3.11,8.33-4.66,12.5-.69,1.85-1.17,3.79-2.09,5.5-.5.92-1.64,1.75-2.66,2.07-1.77.56-2.32-.66-2.83-2.26-1.79-5.61-3.8-11.15-5.73-16.71-.18-.54-.41-1.07-1.15-1.52-.3,5.32-.66,10.63-.87,15.95-.2,4.82-.13,4.82-5.35,4.44.72-10.18,1.43-20.37,2.15-30.53,5.07-1.37,5.92-1.03,7.53,3.42,2.23,6.13,4.35,12.31,6.54,18.53,2.69-7.5,5.33-14.87,8.07-22.52,2.11.9,4.86-1.85,6.56,1.44Z"/>
    <path class="cls-3" d="m188.96,620.99c-.85,4.77-3.57,7.17-8.49,7.72-3.98.43-7.84.41-11.55-1.83.37-1.25.7-2.38,1.08-3.69,2.11.59,4.06,1.17,6.04,1.68,3.31.85,6.87-.67,7.54-3.45.78-3.2-1.31-4.87-3.86-6.07-1.86-.88-3.81-1.59-5.61-2.57-3.78-2.05-5.25-5.39-4.3-9.41.73-3.11,4.56-6.06,8.21-6.03,3.21.03,6.41.36,10.12.58-.76,2.03-1.16,3.1-1.64,4.37-1.93-.44-3.7-1.02-5.51-1.23-2.43-.28-4.79.38-5.72,2.81-.97,2.54.35,4.43,2.78,5.52,1.89.85,3.79,1.67,5.64,2.59,3.82,1.92,5.89,5.51,5.27,9.01Z"/>
    <path class="cls-3" d="m689.94,621.85c.03.87.07,1.74.08,2.61.03,4.58-1.49,5.48-5.78,3.42v-26.43h-8.89v-3.88h23.7c.05,1.21.11,2.29.17,3.63h-9.28v20.65Z"/>
    <path class="cls-3" d="m278.9,621.33c-.89,4.46-3.79,6.92-8.44,7.38-3.99.4-7.88.4-11.63-1.86.46-1.37.8-2.38,1.24-3.69,2.11.65,4.13,1.36,6.2,1.9,2.79.73,6.32-.95,7.19-3.3.86-2.35-.46-4.83-3.42-6.3-.67-.34-1.41-.53-2.1-.82-1.11-.47-2.22-.92-3.3-1.45-3.72-1.85-5.28-4.53-4.98-8.51.23-3.13,2.91-6.62,6.41-7.07,3.72-.48,7.55-.05,11.83-.02-.54,2.12-.83,3.22-1.19,4.64-1.91-.38-3.69-.77-5.49-1.09-2.62-.46-5.01.25-6.01,2.75-1,2.51.31,4.44,2.82,5.5,2,.85,4.02,1.69,5.95,2.69,3.61,1.86,5.61,5.75,4.92,9.25Z"/>
    <polygon class="cls-3" points="386.76 597.57 391.78 597.57 391.78 628.5 386.92 628.5 386.92 614.36 372.86 614.36 372.86 628.54 367.84 628.54 367.84 597.55 372.78 597.55 372.78 609.98 386.76 609.98 386.76 597.57"/>
    <path class="cls-3" d="m415.09,599.77c3.11,9.53,6.49,18.97,9.86,28.7q-5.42.37-7.01-4.24-1.9-5.52-7.89-5.51h-3.54c-.65,1.96-1.49,3.85-1.89,5.83-.74,3.59-2.63,5-6.64,3.72.71-2.15,1.43-4.37,2.17-6.58,2.44-7.24,4.93-14.46,7.29-21.72.64-1.98,1.62-2.76,3.77-2.65,1.91.11,3.14.18,3.88,2.45Z"/>
    <rect class="cls-3" x="570.16" y="597.55" width="4.89" height="31"/>
    <path class="cls-3" d="m498.79,597.45c.68,10.32,1.36,20.54,2.05,31.05h-5.43c-.42-6.72-.85-13.61-1.33-21.35-2.55,6.97-4.86,13.1-7.03,19.29-.55,1.55-1.18,2.37-3,2.33-1.72-.03-2.47-.58-2.99-2.26-1.63-5.26-3.48-10.46-5.25-15.68-.34-.99-.73-1.96-1.32-3.54-.41,7.48-.79,14.26-1.18,21.22-1.3.14-2.48.27-3.65.4-.59-.4-1.18-.8-1.78-1.2.79-9.93,1.59-19.85,2.38-29.76,5.16-1.47,6.07-1.08,7.78,3.61,2.14,5.9,4.2,11.83,6.28,17.71,2.21-6.05,4.64-12.04,6.55-18.2.96-3.11,2.48-4.32,5.59-3.77.64.11,1.3.09,2.33.15Z"/>
    <path class="cls-3" d="m622.17,601.51c-.49-3.3-2.23-4.74-5.54-4.23-.91.86-2.27,1.54-2.66,2.59-1.97,5.3-3.67,10.71-5.49,16.06-1.4,4.12-2.83,8.23-4.28,12.41q5.25.67,6.76-3.92c.64-1.92,1.32-3.82,1.91-5.52h9.47c.75,2.02,1.46,3.86,2.1,5.72q1.63,4.7,6.68,3.57c-2.56-7.66-5.11-15.32-7.66-22.97-.44-1.23-1.1-2.44-1.29-3.71Zm-8.51,13.71c1.31-3.82,2.53-7.41,3.94-11.52,1.39,4.13,2.61,7.73,3.88,11.52h-7.82Z"/>
    <path class="cls-3" d="m714.46,597.38c-.67,0-1.35.09-2-.03-3.24-.61-4.58.91-5.5,3.94-.9,2.96-2.69,5.65-4.09,8.45-.49,2.45-.79,4.96-1.51,7.33-1.14,3.74-2.55,7.4-3.85,11.13,5.38,1.29,6.5.6,7.67-4.26,1.14-4.76,1.43-5.05,6.36-4.96,1.71.04,3.97-.89,4.74,1.75.77,2.62,1.46,5.27,2.18,7.91,1.81-.24,3.62-.49,5.42-.73-.18-1.67-.35-3.16-.52-4.64-2.97-8.63-5.94-17.26-8.9-25.89Zm-6.51,17.66c1-3.17,1.94-6.14,2.89-9.11.26-.03.53-.05.8-.08.97,2.99,1.93,5.99,2.96,9.19h-6.65Z"/>
    <path class="cls-3" d="m37.82,597.64c0,7.14.51,14.36-.14,21.47-.65,7.03-5.74,10.22-12.8,9.82-6.49-.36-10-3.11-10.67-11.29-.53-6.58-.11-13.25-.11-20.19h5.24c0,5.87-.01,11.7,0,17.54.01,1.32-.07,2.69.23,3.96.97,4.23,3.63,6.61,6.82,6.32,3.46-.32,6.1-3.5,6.19-7.77.11-5.54.05-11.09.07-16.64v-3.22h5.16Z"/>
    <path class="cls-3" d="m749.81,598.11c1.47-.29,2.87-.57,4.48-.89v31.11c-3.47,1.09-5.63.07-7.32-3.27-2.49-4.95-5.5-9.64-8.39-14.38-.5-.82-1.49-1.33-2.26-1.99-.4.91-1.09,1.81-1.15,2.74-.36,5.6-.57,11.2-.84,17.01h-3.06c-.34-3.55-.68-7.08-1.01-10.61-.02-5.82-.11-11.65.01-17.47.02-1.06.96-3,1.39-2.97,1.81.1,3.96.32,5.27,1.38,1.53,1.24,2.33,3.39,3.44,5.14.96,2.02,1.77,4.13,2.9,6.05,1.97,3.33,4.14,6.55,6.54,10.32v-22.17Z"/>
    <rect class="cls-3" x="195.84" y="597.57" width="4.53" height="30.97"/>
    <path class="cls-3" d="m787.06,612.14c0,4.56.06,9.17-.06,13.77-.02.65-.87,1.8-1.38,1.83-4.89.28-9.96,1.22-14.65.31-6.71-1.29-9.61-6.39-10.02-13.65-.52-9.02,4.33-15.36,11.94-16.65,3.6-.61,7.42.06,11.14.15,1.71.05,2.16.78,1.75,2.5-.46,1.9-1.58,1.87-2.98,1.44-3.66-1.13-7.14-1.16-10.72.66-6.45,3.29-6.83,11.35-4.78,16.43,2.19,5.46,8.79,7.62,14.85,5.22v-8.15h-6.29c-.07-1.37-.13-2.52-.19-3.86h11.39Z"/>
    <path class="cls-3" d="m812.3,624.61c.05,1.34.1,2.49.16,3.85h-17.9v-30.84h17.09v3.72h-11.94c-.23.42-.32.51-.33.61q-.9,8.5,7.52,8.48h4.05v3.54h-11.55v10.64h12.9Z"/>
    <path class="cls-3" d="m327.57,601.08c.58,9.04,1.05,18.08,1.58,27.36h-4.88c-.49-7.14-.98-14.24-1.51-22.02-2.82,7.74-5.42,14.87-8.05,22.1h-4.14c-2.36-6.93-4.73-13.9-7.4-21.74-.52,7.78-.98,14.64-1.45,21.78h-4.96c.72-10.26,1.43-20.53,2.14-30.75,5.79-1.08,6.24-.81,7.99,4.37,1.94,5.74,3.89,11.47,6,17.71,2.56-6.92,5.23-13.31,7.22-19.9,1.04-3.48,3.32-2.52,5.43-2.57,2.78-.06,1.94,2.21,2.03,3.66Z"/>
    <path class="cls-3" d="m528.4,614.39c1.09,4.61,2.17,9.22,3.25,13.83q-4.07,1.08-7.08-4.54c-.01-.3-.03-.61-.04-.91-.39-.57-.78-1.13-1.17-1.7-.48-.68-.92-1.9-1.46-1.95-2.29-.22-4.63-.17-6.93-.01-.55.04-1.25.78-1.51,1.36-.59,1.3-.97,2.69-1.39,4.05-1.47,4.67-1.6,4.75-7.1,3.81,3.49-10.33,6.97-20.6,10.45-30.87q6.18-.25,8.15,5.55c1.06,3.14,2.1,6.28,3.15,9.42.56.65,1.12,1.3,1.68,1.96Z"/>
    <path class="cls-3" d="m163.75,603.85c-.77-3.26-3.32-5.51-7.5-5.82-4.02-.31-8.08-.07-12.22-.07v30.48h5.08v-13c5.87-.18,7.44.99,8.65,6.2.17.75.33,1.5.52,2.25q1.3,5.04,6.91,4.55c-1.69-5.03-3.35-9.97-5.16-15.36,3.14-1.95,4.67-5.24,3.72-9.23Zm-5.9,5.29c-1.89,3.44-5.46,2.99-8.95,2.76v-10.4c3.34-.3,6.9-1.23,8.9,2.26.8,1.39.82,3.97.05,5.38Z"/>
    <path class="cls-3" d="m597.05,611.71c-1.89,2.83-2.63,5.67-2.42,8.97.16,2.52.04,5.06.04,7.86h-5.58c3.51-12.28-4.31-21.09-9.39-30.86q5.77-.67,8.04,3.9c1.49,2.99,3,5.97,4.67,9.29,1.77-3.42,3.4-6.6,5.06-9.77,2.2-4.22,2.35-4.28,7.71-3.26-2.71,4.69-5.18,9.45-8.13,13.87Z"/>
    <rect class="cls-3" x="78.38" y="597.54" width="4.68" height="31"/>
    <path class="cls-3" d="m834.44,613.79c4.2-2.83,5.45-5.52,4.62-9.52-.91-4.37-3.89-6.16-7.99-6.32-3.82-.16-7.65-.04-11.85-.04v30.54h5.23v-13.04c6.05-.14,7.13.68,8.65,6.41.23.84.43,1.68.66,2.52q1.28,4.77,6.74,3.98c-2.41-4.75-1.29-10.8-6.06-14.53Zm-.88-5.05c-1.78,3.67-5.45,3.47-9.23,3.22v-10.45c3.17-.3,6.6-1.22,8.76,1.82.93,1.31,1.17,3.97.47,5.41Z"/>
    <path class="cls-3" d="m895.99,597.59h4.72v30.79c-3.3.96-5.45.1-7.29-3.23-3.48-6.27-7.54-12.21-11.81-18.99v22.33h-4.49v-30.79c3.93-1.38,5.76.61,7.49,3.56,3.47,5.91,7.26,11.64,11.38,18.19v-21.86Z"/>
    <path class="cls-3" d="m870.38,628.58h-5.07c-1.11-3.22-2.22-6.46-3.31-9.64-.32-.09-.53-.19-.74-.2q-8.73-.42-11.5,7.67-.82,2.39-6.01,2.09c1.53-4.46,3.03-8.79,4.5-13.14,1.82-5.37,3.52-10.77,5.5-16.07.32-.86,1.85-1.79,2.8-1.77,1.39.03,3.68.55,4.01,1.44,3.43,9.39,6.56,18.89,9.75,28.37.1.3.04.65.07,1.25Z"/>
    <path class="cls-3" d="m933.45,626.01c-.01.62-.87,1.58-1.5,1.74-5.5,1.38-11.08,1.97-16.49-.19-6.51-2.59-8.63-9.09-8.25-15.43.8-13.28,13.11-17.45,25.08-13.52-.1,2.53-.38,3.98-3.85,2.97-6.56-1.9-11.6.45-14.55,5.64-2.07,3.65-1.45,11.03,1.17,13.98,3.22,3.63,7.75,4.9,13.09,3.28v-8.43h-5.79v-4.09h11.16c0,4.82.06,9.44-.07,14.05Z"/>
  </g>
</svg>