<svg width="300" height="300" viewBox="0 0 300 300" fill="none" xmlns="http://www.w3.org/2000/svg">
<rect width="300" height="300" rx="150" fill="white"/>
<path d="M128.791 183.667C142.648 182.55 156.569 182.55 170.426 183.667C177.971 184.107 185.481 185.051 192.908 186.493C208.979 189.747 219.471 195.056 223.967 203.619C227.344 210.302 227.344 218.258 223.967 224.941C219.471 233.505 209.395 239.156 192.742 242.068C185.321 243.564 177.809 244.537 170.259 244.979C163.265 245.75 156.27 245.75 149.192 245.75H136.452C133.788 245.407 131.206 245.236 128.708 245.236C121.158 244.848 113.645 243.903 106.226 242.41C90.155 239.328 79.6631 233.847 75.1667 225.284C73.4308 221.967 72.5157 218.261 72.501 214.494C72.4659 210.705 73.3533 206.966 75.0834 203.619C79.4966 195.056 89.9884 189.49 106.226 186.493C113.677 185.03 121.216 184.086 128.791 183.667ZM149.525 53.25C177.44 53.25 200.069 76.5215 200.069 105.228C200.069 133.935 177.44 157.207 149.525 157.207C121.611 157.207 98.9814 133.935 98.9814 105.228C98.9814 76.5215 121.611 53.25 149.525 53.25Z" fill="black" fill-opacity="0.7"/>
</svg>
